<svg id="filled_outline" data-name="filled outline" xmlns="http://www.w3.org/2000/svg" viewBox="0 0 340 340"><rect x="10" y="109.395" width="99.679" height="187.113" style="fill:#c7e2ff"/><rect x="109.679" y="150.538" width="27.503" height="145.97" style="fill:#2f313f"/><rect x="32.159" y="150.538" width="18.151" height="145.97" style="fill:#618cbf"/><rect x="69.369" y="150.538" width="18.151" height="145.97" style="fill:#618cbf"/><rect x="137.182" y="43.492" width="192.818" height="253.015" style="fill:#c7e2ff"/><polygon points="137.182 214.566 308.255 43.492 255.836 43.492 137.182 162.147 137.182 214.566" style="fill:#fff"/><polygon points="330 82.274 137.182 275.092 137.182 296.508 147.677 296.508 330 114.184 330 82.274" style="fill:#fff"/><polygon points="245.267 296.508 330 211.774 330 184.53 218.022 296.508 245.267 296.508" style="fill:#fff"/><polygon points="137.182 126.188 219.878 43.492 184.496 43.492 137.182 90.806 137.182 126.188" style="fill:#fff"/><path d="M330,39.492H137.182a4,4,0,0,0-4,4V146.538h-19.5V109.4a4,4,0,0,0-4-4H10a4,4,0,0,0-4,4V296.508a4,4,0,0,0,4,4c17.656-.038,41.761.026,59.369,0,19.84.032,47.878-.022,67.813,0H330a4,4,0,0,0,4-4V43.492A4,4,0,0,0,330,39.492ZM46.31,292.508H36.159V154.538H46.31Zm37.21,0H73.369V154.538H83.52Zm22.159-141.97v141.97H91.52V150.538a4,4,0,0,0-4-4H69.369a4,4,0,0,0-4,4v141.97H54.31V150.538a4,4,0,0,0-4-4H32.159a4,4,0,0,0-4,4v141.97H14V113.4h91.679Zm27.5,141.97h-19.5V154.538h19.5ZM237.591,47.492h40.2v54.861h-40.2Zm-48.205,0h40.205v54.861H189.386Zm-48.2,0h40.2v54.861h-40.2Zm0,103.046V110.353h88.409v55.385H189.386V122.192a4,4,0,1,0-8,0v43.546h-40.2Zm0,23.2h40.2v55.909h-40.2Zm88.409,118.77H189.386V250.936a4,4,0,0,0-8,0v41.572h-40.2V237.647h88.409Zm48.2,0h-40.2V237.647h40.2Zm0-62.861h-40.2V187.415a4,4,0,1,0-8,0v42.232H189.386V173.738H277.8ZM326,292.508H285.8V237.647H326Zm0-62.861H285.8V173.738H326Zm0-63.909H285.8V122.192a4,4,0,0,0-8,0v43.546h-40.2V110.353H326Zm0-63.385H285.8V47.492H326Z" style="fill:#2f313f"/></svg>